<svg width="9" height="14" viewBox="0 0 9 14" fill="none" xmlns="http://www.w3.org/2000/svg">
<mask id="path-1-inside-1_2_37" fill="white">
<path d="M9 7L0 0.937822V13.0622L9 7Z"/>
</mask>
<path d="M9 7L0 0.937822V13.0622L9 7Z" fill="#AFAFAF"/>
<path d="M9 7L12.9106 1.19423L21.53 7L12.9106 12.8058L9 7ZM0 0.937822L-7 0.937822L-7 -12.2171L3.91063 -4.86795L0 0.937822ZM0 13.0622L3.91063 18.868L-7 26.2171V13.0622H0ZM9 7L5.08937 12.8058L-3.91063 6.7436L0 0.937822L3.91063 -4.86795L12.9106 1.19423L9 7ZM0 0.937822H7L7 13.0622H0H-7V0.937822L0 0.937822ZM0 13.0622L-3.91063 7.2564L5.08937 1.19423L9 7L12.9106 12.8058L3.91063 18.868L0 13.0622Z" fill="#181818" mask="url(#path-1-inside-1_2_37)"/>
</svg>
