<svg width="50" height="50" viewBox="0 0 50 50" fill="none" xmlns="http://www.w3.org/2000/svg">
<path d="M25 2.00006C12.3093 2.00006 2 12.3094 2 25.0001C2 37.6908 12.3093 48.0001 25 48.0001C37.6907 48.0001 48 37.6908 48 25.0001C48 12.3094 37.6907 2.00006 25 2.00006ZM25 4.00006C36.6098 4.00006 46 13.3902 46 25.0001C46 36.6099 36.6098 46.0001 25 46.0001C13.3902 46.0001 4 36.6099 4 25.0001C4 13.3902 13.3902 4.00006 25 4.00006ZM24 13.0001V24.0001H13V26.0001H24V37.0001H26V26.0001H37V24.0001H26V13.0001H24Z" fill="#242424"/>
</svg>
